<svg width="300" height="250" viewBox="0 0 182 78" fill="none" xmlns="http://www.w3.org/2000/svg">
<path d="M4.36328 30H0.359375V1.99219H2.35156C3.65365 1.99219 5.03385 2.16146 6.49219 2.5C7.96354 2.83854 9.46094 3.32682 10.9844 3.96484C12.5078 4.60286 14.0247 5.3776 15.5352 6.28906C17.0586 7.1875 18.5299 8.20964 19.9492 9.35547C21.3685 10.5013 22.7031 11.7513 23.9531 13.1055C25.2031 14.4466 26.3229 15.8789 27.3125 17.4023V1.99219H31.3164V30H27.3125C27.3125 27.9427 26.9544 25.9635 26.2383 24.0625C25.5221 22.1484 24.5651 20.3451 23.3672 18.6523C22.1693 16.9596 20.7891 15.4036 19.2266 13.9844C17.6641 12.5521 16.0299 11.2956 14.3242 10.2148C12.6315 9.13411 10.9258 8.2487 9.20703 7.55859C7.48828 6.85547 5.8737 6.38672 4.36328 6.15234V30ZM62.625 30H42.625C41.6484 30 40.737 29.8177 39.8906 29.4531C39.0443 29.0885 38.3021 28.5938 37.6641 27.9688C37.026 27.3307 36.5247 26.5885 36.1602 25.7422C35.7956 24.8828 35.6133 23.9714 35.6133 23.0078C35.6133 22.0312 35.7956 21.1198 36.1602 20.2734C36.5247 19.4271 37.026 18.6849 37.6641 18.0469C38.3021 17.4089 39.0443 16.9076 39.8906 16.543C40.737 16.1784 41.6484 15.9961 42.625 15.9961H56.6094V20H42.625C42.2083 20 41.8177 20.0846 41.4531 20.2539C41.0885 20.4102 40.7695 20.625 40.4961 20.8984C40.2227 21.1719 40.0078 21.4909 39.8516 21.8555C39.6953 22.2201 39.6172 22.6042 39.6172 23.0078C39.6172 23.4245 39.6953 23.8151 39.8516 24.1797C40.0078 24.5312 40.2227 24.8438 40.4961 25.1172C40.7695 25.3906 41.0885 25.6055 41.4531 25.7617C41.8177 25.918 42.2083 25.9961 42.625 25.9961H58.6211V15C58.6211 14.5964 58.5365 14.2122 58.3672 13.8477C58.2109 13.4831 57.9961 13.1641 57.7227 12.8906C57.4492 12.6172 57.1302 12.4023 56.7656 12.2461C56.401 12.0768 56.0169 11.9922 55.6133 11.9922H39.6172V8.00781H55.6133C56.5898 8.00781 57.5013 8.1901 58.3477 8.55469C59.194 8.91927 59.9362 9.42057 60.5742 10.0586C61.2122 10.6836 61.7135 11.4193 62.0781 12.2656C62.4427 13.112 62.625 14.0234 62.625 15V30ZM75.9648 30H71.9609V11.9922H65.9648V8.00781H71.9609V0H75.9648V8.00781H89.9688V11.9922H75.9648V30ZM119.051 30H115.047V19.0039C115.047 18.0404 114.865 17.1354 114.5 16.2891C114.135 15.4427 113.641 14.707 113.016 14.082C112.391 13.444 111.655 12.9427 110.809 12.5781C109.975 12.2005 109.077 12.0052 108.113 11.9922H97.1172V30H93.1133V0H97.1172V8.00781H108.113C109.624 8.00781 111.043 8.30078 112.371 8.88672C113.699 9.45964 114.858 10.2474 115.848 11.25C116.837 12.2396 117.618 13.4049 118.191 14.7461C118.764 16.0742 119.051 17.4935 119.051 19.0039V30ZM149.5 30H129.5C128.523 30 127.612 29.8177 126.766 29.4531C125.919 29.0885 125.177 28.5938 124.539 27.9688C123.901 27.3307 123.4 26.5885 123.035 25.7422C122.671 24.8828 122.488 23.9714 122.488 23.0078C122.488 22.0312 122.671 21.1198 123.035 20.2734C123.4 19.4271 123.901 18.6849 124.539 18.0469C125.177 17.4089 125.919 16.9076 126.766 16.543C127.612 16.1784 128.523 15.9961 129.5 15.9961H143.484V20H129.5C129.083 20 128.693 20.0846 128.328 20.2539C127.964 20.4102 127.645 20.625 127.371 20.8984C127.098 21.1719 126.883 21.4909 126.727 21.8555C126.57 22.2201 126.492 22.6042 126.492 23.0078C126.492 23.4245 126.57 23.8151 126.727 24.1797C126.883 24.5312 127.098 24.8438 127.371 25.1172C127.645 25.3906 127.964 25.6055 128.328 25.7617C128.693 25.918 129.083 25.9961 129.5 25.9961H145.496V15C145.496 14.5964 145.411 14.2122 145.242 13.8477C145.086 13.4831 144.871 13.1641 144.598 12.8906C144.324 12.6172 144.005 12.4023 143.641 12.2461C143.276 12.0768 142.892 11.9922 142.488 11.9922H126.492V8.00781H142.488C143.465 8.00781 144.376 8.1901 145.223 8.55469C146.069 8.91927 146.811 9.42057 147.449 10.0586C148.087 10.6836 148.589 11.4193 148.953 12.2656C149.318 13.112 149.5 14.0234 149.5 15V30ZM159.109 30H155.105V8.00781H170.105C171.616 8.00781 173.035 8.30078 174.363 8.88672C175.691 9.45964 176.85 10.2474 177.84 11.25C178.829 12.2396 179.611 13.4049 180.184 14.7461C180.757 16.0742 181.043 17.4935 181.043 19.0039V30H177.039V19.0039C177.039 18.0404 176.857 17.1354 176.492 16.2891C176.128 15.4427 175.633 14.707 175.008 14.082C174.383 13.444 173.647 12.9427 172.801 12.5781C171.967 12.2005 171.069 12.0052 170.105 11.9922H159.109V30ZM33.3281 69.9922C33.3281 71.112 33.1133 72.1602 32.6836 73.1367C32.2669 74.1003 31.694 74.9466 30.9648 75.6758C30.2487 76.3919 29.4023 76.9583 28.4258 77.375C27.4492 77.7917 26.4141 78 25.3203 78H6.35547V73.9961H25.3203C25.8672 73.9961 26.3815 73.8919 26.8633 73.6836C27.3581 73.4753 27.7878 73.1888 28.1523 72.8242C28.5169 72.4596 28.8034 72.0365 29.0117 71.5547C29.2201 71.0599 29.3242 70.5391 29.3242 69.9922C29.3242 69.4453 29.2201 68.931 29.0117 68.4492C28.8034 67.9674 28.5169 67.5443 28.1523 67.1797C27.7878 66.8151 27.3581 66.5286 26.8633 66.3203C26.3815 66.112 25.8672 66.0078 25.3203 66.0078H6.35547V62.0039H21.3164C21.8633 62.0039 22.3776 61.8997 22.8594 61.6914C23.3542 61.4831 23.7839 61.1966 24.1484 60.832C24.513 60.4674 24.7995 60.0443 25.0078 59.5625C25.2161 59.0677 25.3203 58.5469 25.3203 58C25.3203 57.4531 25.2161 56.9388 25.0078 56.457C24.7995 55.9622 24.513 55.5326 24.1484 55.168C23.7839 54.8034 23.3542 54.5169 22.8594 54.3086C22.3776 54.1003 21.8633 53.9961 21.3164 53.9961H4.36328V78H0.359375V49.9922H21.3164C22.4102 49.9922 23.4453 50.207 24.4219 50.6367C25.3984 51.0534 26.2448 51.6263 26.9609 52.3555C27.6901 53.0716 28.263 53.918 28.6797 54.8945C29.1094 55.8711 29.3242 56.9062 29.3242 58C29.3242 58.8464 29.2005 59.6471 28.9531 60.4023C28.7057 61.1445 28.3737 61.8346 27.957 62.4727C28.7383 62.7461 29.4544 63.1302 30.1055 63.625C30.7695 64.1198 31.3359 64.6927 31.8047 65.3438C32.2865 65.9948 32.6576 66.7174 32.918 67.5117C33.1914 68.293 33.3281 69.1198 33.3281 69.9922ZM62.5859 78H42.5859C41.6094 78 40.6979 77.8177 39.8516 77.4531C39.0052 77.0885 38.263 76.5938 37.625 75.9688C36.987 75.3307 36.4857 74.5885 36.1211 73.7422C35.7565 72.8828 35.5742 71.9714 35.5742 71.0078C35.5742 70.0312 35.7565 69.1198 36.1211 68.2734C36.4857 67.4271 36.987 66.6849 37.625 66.0469C38.263 65.4089 39.0052 64.9076 39.8516 64.543C40.6979 64.1784 41.6094 63.9961 42.5859 63.9961H56.5703V68H42.5859C42.1693 68 41.7786 68.0846 41.4141 68.2539C41.0495 68.4102 40.7305 68.625 40.457 68.8984C40.1836 69.1719 39.9688 69.4909 39.8125 69.8555C39.6562 70.2201 39.5781 70.6042 39.5781 71.0078C39.5781 71.4245 39.6562 71.8151 39.8125 72.1797C39.9688 72.5312 40.1836 72.8438 40.457 73.1172C40.7305 73.3906 41.0495 73.6055 41.4141 73.7617C41.7786 73.918 42.1693 73.9961 42.5859 73.9961H58.582V63C58.582 62.5964 58.4974 62.2122 58.3281 61.8477C58.1719 61.4831 57.957 61.1641 57.6836 60.8906C57.4102 60.6172 57.0911 60.4023 56.7266 60.2461C56.362 60.0768 55.9779 59.9922 55.5742 59.9922H39.5781V56.0078H55.5742C56.5508 56.0078 57.4622 56.1901 58.3086 56.5547C59.1549 56.9193 59.8971 57.4206 60.5352 58.0586C61.1732 58.6836 61.6745 59.4193 62.0391 60.2656C62.4036 61.112 62.5859 62.0234 62.5859 63V78ZM76.043 78H75.0469C74.0703 78 73.1589 77.8177 72.3125 77.4531C71.4661 77.0885 70.724 76.5938 70.0859 75.9688C69.4479 75.3307 68.9466 74.5885 68.582 73.7422C68.2174 72.8828 68.0352 71.9714 68.0352 71.0078V48H72.0391V71.0078C72.0391 71.4245 72.1172 71.8151 72.2734 72.1797C72.4297 72.5312 72.6445 72.8438 72.918 73.1172C73.1914 73.3906 73.5104 73.6055 73.875 73.7617C74.2396 73.918 74.6302 73.9961 75.0469 73.9961H76.043V78ZM104.051 78H100.047V59.9922H89.0508C88.0872 59.9922 87.1823 60.181 86.3359 60.5586C85.5026 60.9232 84.7734 61.4245 84.1484 62.0625C83.5234 62.6875 83.0286 63.4297 82.6641 64.2891C82.3125 65.1354 82.1367 66.0404 82.1367 67.0039C82.1367 67.9674 82.3125 68.8724 82.6641 69.7188C83.0286 70.5521 83.5234 71.2878 84.1484 71.9258C84.7734 72.5508 85.5026 73.0521 86.3359 73.4297C87.1823 73.7943 88.0872 73.9831 89.0508 73.9961H98.0547V78H89.0508C87.5404 78 86.1211 77.7135 84.793 77.1406C83.4648 76.5547 82.306 75.7669 81.3164 74.7773C80.3398 73.7747 79.5651 72.6094 78.9922 71.2812C78.4193 69.9401 78.1328 68.5143 78.1328 67.0039C78.1328 65.4935 78.4193 64.0742 78.9922 62.7461C79.5651 61.418 80.3398 60.2591 81.3164 59.2695C82.306 58.2669 83.4648 57.4792 84.793 56.9062C86.1211 56.3203 87.5404 56.0208 89.0508 56.0078H100.047V48H104.051V78ZM135.398 63C135.398 63.9766 135.216 64.888 134.852 65.7344C134.487 66.5807 133.986 67.3229 133.348 67.9609C132.723 68.5859 131.98 69.0807 131.121 69.4453C130.275 69.8099 129.37 69.9922 128.406 69.9922H113.074C113.361 70.5781 113.719 71.1185 114.148 71.6133C114.578 72.1081 115.06 72.5312 115.594 72.8828C116.128 73.2344 116.707 73.5078 117.332 73.7031C117.97 73.8984 118.634 73.9961 119.324 73.9961H132.41V78H119.324C117.814 77.987 116.395 77.694 115.066 77.1211C113.738 76.5352 112.579 75.7474 111.59 74.7578C110.613 73.7552 109.839 72.5898 109.266 71.2617C108.693 69.9336 108.406 68.5143 108.406 67.0039C108.406 65.4935 108.693 64.0742 109.266 62.7461C109.839 61.418 110.613 60.2591 111.59 59.2695C112.579 58.2669 113.738 57.4792 115.066 56.9062C116.395 56.3203 117.814 56.0208 119.324 56.0078H128.406C129.37 56.0078 130.275 56.1901 131.121 56.5547C131.98 56.9193 132.723 57.4206 133.348 58.0586C133.986 58.6836 134.487 59.4193 134.852 60.2656C135.216 61.112 135.398 62.0234 135.398 63ZM128.406 66.0078C128.81 66.0078 129.194 65.9297 129.559 65.7734C129.923 65.6172 130.242 65.4023 130.516 65.1289C130.789 64.8555 131.004 64.5365 131.16 64.1719C131.316 63.8073 131.395 63.4167 131.395 63C131.395 62.5964 131.316 62.2122 131.16 61.8477C131.004 61.4831 130.789 61.1641 130.516 60.8906C130.242 60.6172 129.923 60.4023 129.559 60.2461C129.194 60.0768 128.81 59.9922 128.406 59.9922H119.324C118.439 59.9922 117.605 60.1484 116.824 60.4609C116.056 60.7734 115.366 61.2031 114.754 61.75C114.155 62.2839 113.654 62.9219 113.25 63.6641C112.859 64.3932 112.605 65.1745 112.488 66.0078H128.406ZM164.129 59.9922L144.852 73.9961H164.129V78H138.133V73.9961L157.371 59.9922H138.133V56.0078H164.129V59.9922Z" fill="url(#paint0_linear_1_4)"/>
<defs>
<linearGradient id="paint0_linear_1_4" x1="6.5" y1="40" x2="415" y2="108.5" gradientUnits="userSpaceOnUse">
<stop stop-color="#FF914D"/>
<stop offset="1" stop-color="#F07B32" stop-opacity="0"/>
</linearGradient>
</defs>
</svg>
